Coordinates
version=1
nRows=32
nColumns=12
inDegrees=yes

Units are S.I. units (second, meters, Newtons, ...)
Angles are in degrees

endheader
time	SC_y	SC_z	SC_x	AC_y	AC_z	AC_x	GH_y	GH_z	GH_yy	EL_x	PS_y
       0.0              -33.53          18.43          15.63          50.39          -11.6          13.58          143.8          40.59          127.2          61.79          139.9
    0.0237              -33.53          18.43          15.64           50.4          -11.6          13.58          143.9          40.59          127.2          61.78          139.9
   0.04739              -33.53          18.42          15.64           50.4          -11.6          13.58          143.9           40.6          127.2          61.78          139.9
   0.07109              -33.53          18.42          15.64           50.4          -11.6          13.58          143.9           40.6          127.2          61.77          139.9
   0.09479              -33.53          18.42          15.65           50.4         -11.59          13.58          143.9          40.61          127.2          61.76          139.9
    0.1185              -33.53          18.41          15.65           50.4         -11.59          13.58          143.9          40.61          127.2          61.76          139.9
    0.1422              -33.53          18.41          15.66          50.41         -11.58          13.58          143.9          40.62          127.2          61.75          139.9
    0.1659              -33.53           18.4          15.66          50.41         -11.58          13.58          143.9          40.62          127.2          61.74          139.9
    0.1896              -33.53           18.4          15.67          50.41         -11.57          13.58          143.9          40.63          127.2          61.74          139.9
    0.2133              -33.53          18.39          15.68          50.41         -11.57          13.58          143.9          40.63          127.3          61.73          139.9
     0.237              -33.53          18.39          15.68          50.42         -11.56          13.58          143.9          40.64          127.3          61.72          139.9
    0.2607              -33.53          18.38          15.69          50.42         -11.56          13.58          143.9          40.65          127.3          61.71          139.9
    0.2844              -33.53          18.38           15.7          50.42         -11.55          13.58          143.9          40.66          127.3           61.7          139.9
    0.3081              -33.53          18.37          15.71          50.42         -11.55          13.58          143.9          40.66          127.3          61.68          139.9
    0.3318              -33.53          18.36          15.72          50.43         -11.54          13.58          144.0          40.67          127.3          61.67          139.9
    0.3555              -33.53          18.36          15.73          50.43         -11.53          13.58          144.0          40.68          127.3          61.66          139.9
    0.3792              -33.53          18.35          15.74          50.44         -11.52          13.58          144.0          40.69          127.3          61.64          139.9
    0.4029              -33.53          18.34          15.75          50.44         -11.51          13.58          144.0          40.71          127.4          61.63          139.8
    0.4266              -33.53          18.33          15.76          50.45          -11.5          13.58          144.0          40.72          127.4          61.61          139.8
    0.4502              -33.53          18.32          15.78          50.45         -11.49          13.58          144.0          40.73          127.4          61.59          139.8
    0.4739              -33.53           18.3          15.79          50.46         -11.48          13.58          144.0          40.75          127.4          61.57          139.8
    0.4976              -33.53          18.29          15.81          50.47         -11.46          13.58          144.1          40.76          127.5          61.54          139.8
    0.5213              -33.53          18.28          15.83          50.47         -11.45          13.58          144.1          40.78          127.5          61.52          139.8
     0.545              -33.53          18.26          15.85          50.48         -11.43          13.58          144.1           40.8          127.5          61.49          139.8
    0.5687              -33.53          18.24          15.88          50.49         -11.41          13.59          144.1          40.83          127.5          61.45          139.8
    0.5924              -33.53          18.22           15.9           50.5         -11.39          13.59          144.2          40.85          127.6          61.42          139.8
    0.6161              -33.53           18.2          15.93          50.51         -11.37          13.59          144.2          40.88          127.6          61.38          139.7
    0.6398              -33.53          18.17          15.97          50.53         -11.34          13.59          144.3          40.91          127.7          61.33          139.7
    0.6635              -33.53          18.14           16.0          50.54         -11.31          13.59          144.3          40.95          127.7          61.28          139.7
    0.6872              -33.54          18.11          16.05          50.56         -11.28          13.59          144.4          40.99          127.8          61.22          139.7
    0.7109              -33.54          18.07           16.1          50.58         -11.24          13.59          144.4          41.04          127.9          61.15          139.7
    0.7346              -33.54          18.03          16.15           50.6          -11.2          13.59          144.5          41.09          128.0          61.08          139.6
